<?xml version="1.0" encoding="utf-8"?>
<!-- Generator: Adobe Illustrator 19.0.0, SVG Export Plug-In . SVG Version: 6.00 Build 0)  -->
<svg version="1.1" id="Layer_1" xmlns="http://www.w3.org/2000/svg" xmlns:xlink="http://www.w3.org/1999/xlink" x="0px" y="0px"
	 viewBox="-285 375 40 44" style="enable-background:new -285 375 40 44;" xml:space="preserve">
<style type="text/css">
	.st0{fill:#1FE5B5;}
</style>
<g>
	<path class="st0" d="M-280.7,411l14.3-22.9l-2.4-0.1c-2.1,0-4.3,0.5-5.3,2.2l-8.1,12.6l-2.7,4.2v1.6L-280.7,411z"/>
	<polygon class="st0" points="-258.2,388.1 -258.2,388.1 -258.2,388.1 	"/>
	<path class="st0" d="M-247.7,384.8l-15.9-9.1c-1.1-0.6-2.5-0.6-3.6,0c-0.1,0.1-15.4,8.9-15.4,8.9c-1.3,0.6-2.2,2-2.3,3.5V407
		l2.7-4.2l0-14.6c0-0.4,0.2-0.8,0.6-1c0.1,0,15.6-9.1,15.7-9.1c0.4-0.2,0.8-0.2,1.2,0l15.7,9c0.4,0.2,0.6,0.6,0.6,1.1v15.3
		l-8.7-13.5l-3.2,5.5l8.4,13.6l-1.6,0.9l0,0l-8-12.6l-3.7,6.3l6.1,9.5l-5.7,3.3c-0.3,0.1-0.7,0.1-1,0l-6.7-3.9l-1.1,1.9l1.1-1.9
		l14.4-24.5l-6.4,0L-279,412l5.1,2.9l0,0l6,3.5l0.5,0.3c0.2,0.1,0.4,0.2,0.4,0.2c0.4,0.2,1,0.3,1.6,0.3c0.5,0,1-0.1,1.5-0.3
		l16.5-9.6c0.9-0.7,1.5-1.8,1.6-3v-18.3C-245.9,386.7-246.6,385.5-247.7,384.8z"/>
</g>
</svg>
