<?xml version="1.0" encoding="utf-8"?>
<!-- Generator: Adobe Illustrator 19.0.0, SVG Export Plug-In . SVG Version: 6.00 Build 0)  -->
<svg version="1.1" id="Layer_1" xmlns="http://www.w3.org/2000/svg" xmlns:xlink="http://www.w3.org/1999/xlink" x="0px" y="0px"
	 viewBox="-55 147 500 500" style="enable-background:new -55 147 500 500;" xml:space="preserve">
<style type="text/css">
	.st0{fill:#1FE5B5;}
</style>
<path class="st0" d="M-11.6,272.1c7.7-10.8,14.9-21.9,23.6-32c15.8-18.3,33.7-34.1,54.2-47.1c18.4-11.7,37.8-20.9,58.5-27.3
	c32.3-10,65.3-13,98.8-9.2c24.5,2.8,48.2,9.1,70.7,19.2c13.6,6.1,26.5,13.7,39,21.9c25.3,16.5,45.6,38,62.6,62.6
	c18.1,26.2,29.9,55.4,36.3,86.7c4.5,22,6.4,44.2,4.5,66.5c-2.4,27.5-8.5,54.1-19.9,79.6c-9.7,21.6-21.6,41.4-36.9,59.3
	c-14.9,17.5-31.8,32.8-51.1,45.5c-13.2,8.6-26.9,16.3-41.4,22c-24.3,9.5-49.4,16-75.8,17.1c-18.5,0.8-37,0.5-55.3-2.8
	c-15.7-2.8-31-6.9-46.1-12.5c-14.6-5.5-28.7-11.9-41.7-20.1c-18.8-11.8-35.7-26.1-50.7-42.7c-16.8-18.4-30.4-38.8-40.8-61.3
	c-14.7-31.8-21.9-65.4-22.4-100.4c-0.2-13.2,1.3-26.2,3.1-39.3c0.1-0.9,0-1.9,0-2.9c1.5-1,1.4-2.6,1.7-4.1
	c3.9-20.5,10.5-40.1,19.4-58.9C-18.1,285.4-13.7,279.3-11.6,272.1 M270.2,401.5c6.5-3.5,12.7-5.5,17.7-9.9
	c18.9-16.9,24-56.7-6.7-75.8c-9.6-6-19.8-10.4-30.8-14.9c1.8-14.7,7.7-28.5,9.6-43.6c-9.1-2.2-17.6-5.2-26.4-6.2L222.8,293
	c-6.8-2.1-13.8-1.9-20.1-5.5c2.3-14.4,7.8-27.9,9.3-42.3c-9.3-1.5-17.2-5.1-26.3-5.5l-10.6,42.2c-17.9-2.8-34.4-8.9-52.5-12.2
	c-4,8.9-5.7,18.3-7.3,28.3c5.9,1.4,11,2.6,16.2,3.8c13,3,16.5,10.1,13.4,21.4c-2.2,8.1-4.2,16.2-6.2,24.3
	c-7.2,29.2-14.4,58.3-21.7,87.5c-1.6,6.6-5.7,8.7-12.4,7.7c-6.6-1-12.8-3.9-20-3.7c-3.1,10-9.4,18.9-11.6,29.9l51.3,13.1
	c-1.3,15.2-7.6,29.1-9.5,44.4l25.5,6.1c5.7-14,7-28.8,12.2-43.3c6.4,3.3,13.4,2.3,19.6,6.4L162,537.8c9,3.2,17.8,4.5,26.8,6.8
	l10.6-42.4c2.1-1.1,3.7-0.9,5.1-0.6c14,3,28.4,3.7,42.7,2.1c12.4-1.4,23.3-6.1,32.1-15.4c9.8-10.3,14.7-23,17.1-36.5
	c1.9-11.1,1.4-22.3-5.1-32.1C286.3,412.1,279.3,406.2,270.2,401.5 M168.1,459.2c17.4,4.3,34.8,9,53,5.6c9.7-1.8,17-6.7,20-16.5
	c2.8-9.2,1.2-17.6-5.7-24.9c-7.1-7.6-16.3-11.5-25.7-14.8c-11.3-3.9-22.7-7.5-35-8.5l-14,56.8C163.8,457.8,165.9,458.6,168.1,459.2
	 M229.6,378.8c9.6-1.4,17.6-7.7,20-16.4c2.9-10.6-0.3-19.9-8.9-26.2c-9.7-7.2-20.9-10.8-32.5-13.3c-4.3-0.9-8.5-3.5-13.8-1.8
	l-12.6,51.2C198.3,376.5,213.5,381.1,229.6,378.8"/>
</svg>
