<?xml version="1.0" encoding="utf-8"?>
<!-- Generator: Adobe Illustrator 19.0.0, SVG Export Plug-In . SVG Version: 6.00 Build 0)  -->
<svg version="1.1" id="Layer_1" xmlns="http://www.w3.org/2000/svg" xmlns:xlink="http://www.w3.org/1999/xlink" x="0px" y="0px"
	 viewBox="-295 387 20 20" style="enable-background:new -295 387 20 20;" xml:space="preserve">
<style type="text/css">
	.st0{fill:none;}
	.st1{fill:#1FE5B5;}
	.st2{fill:#FFFFFF;fill-opacity:0.602;}
	.st3{fill:#FFFFFF;}
	.st4{fill:#FFFFFF;fill-opacity:0.2;}
</style>
<rect x="-294.7" y="387.5" class="st0" width="19" height="19"/>
<path class="st1" d="M-285.2,406.5c5.2,0,9.5-4.3,9.5-9.5s-4.3-9.5-9.5-9.5c-5.2,0-9.5,4.3-9.5,9.5S-290.5,406.5-285.2,406.5z"/>
<path class="st2" d="M-285.2,390.7v4.7l4,1.8L-285.2,390.7z"/>
<path class="st3" d="M-285.2,390.7l-4,6.4l4-1.8V390.7z"/>
<path class="st2" d="M-285.2,400.1v3.2l4-5.5L-285.2,400.1z"/>
<path class="st3" d="M-285.2,403.3v-3.2l-4-2.3L-285.2,403.3z"/>
<path class="st4" d="M-285.2,399.4l4-2.3l-4-1.8V399.4z"/>
<path class="st2" d="M-289.2,397.1l4,2.3v-4.1L-289.2,397.1z"/>
</svg>
