<?xml version="1.0" encoding="utf-8"?>
<!-- Generator: Adobe Illustrator 19.0.0, SVG Export Plug-In . SVG Version: 6.00 Build 0)  -->
<svg version="1.1" id="Layer_1" xmlns="http://www.w3.org/2000/svg" xmlns:xlink="http://www.w3.org/1999/xlink" x="0px" y="0px"
	 viewBox="-263 355 84 84" style="enable-background:new -263 355 84 84;" xml:space="preserve">
<style type="text/css">
	.st0{fill:none;}
	.st1{fill:#1FE5B5;}
	.st2{fill:#FFFFFF;}
</style>
<rect x="-263" y="355" class="st0" width="84" height="84"/>
<path class="st1" d="M-221,439c23.2,0,42-18.8,42-42c0-23.2-18.8-42-42-42s-42,18.8-42,42C-263,420.2-244.2,439-221,439"/>
<path class="st2" d="M-232.5,408.8c-2.5,0-4.6-0.6-6.2-1.8c-1.6-1.2-2.4-3-2.4-5.3c0-0.5,0.1-1.1,0.2-1.8c0.3-1.6,0.7-3.5,1.2-5.7
	c1.4-6,5.2-9,11.2-9c1.6,0,3.1,0.3,4.4,0.9c1.3,0.5,2.3,1.4,3.1,2.5c0.7,1.1,1.1,2.4,1.1,3.9c0,0.5-0.1,1-0.2,1.7
	c-0.3,1.9-0.7,3.8-1.1,5.6c-0.7,3-2,5.2-3.9,6.7C-227,408-229.5,408.8-232.5,408.8L-232.5,408.8z M-232.1,404.1c1.2,0,2.2-0.4,3-1.1
	c0.9-0.7,1.5-1.8,1.8-3.3c0.5-2,0.9-3.8,1.1-5.4c0.1-0.5,0.1-0.9,0.1-1.4c0-2-1-3-3-3c-1.2,0-2.2,0.4-3.1,1.1
	c-0.8,0.7-1.4,1.8-1.8,3.3c-0.4,1.5-0.8,3.2-1.1,5.4c-0.1,0.5-0.1,0.9-0.1,1.4C-235.2,403.1-234.1,404.1-232.1,404.1 M-218.6,408.4
	c-0.2,0-0.4-0.1-0.5-0.2c-0.1-0.2-0.1-0.4-0.1-0.6l4.4-21.2c0-0.2,0.2-0.4,0.4-0.6c0.2-0.1,0.4-0.2,0.6-0.2h8.5
	c2.4,0,4.3,0.5,5.7,1.5c1.4,1,2.2,2.5,2.2,4.3c0,0.6-0.1,1.1-0.2,1.7c-0.5,2.5-1.6,4.4-3.2,5.6c-1.6,1.2-3.8,1.8-6.6,1.8h-4.3
	l-1.5,7.2c0,0.2-0.2,0.4-0.4,0.6c-0.2,0.1-0.4,0.2-0.6,0.2L-218.6,408.4z M-207.3,396c0.9,0,1.7-0.3,2.3-0.8
	c0.7-0.5,1.1-1.2,1.3-2.2c0.1-0.4,0.1-0.7,0.1-1c0-0.6-0.2-1.1-0.5-1.4c-0.4-0.3-1-0.5-1.9-0.5h-3.8l-1.2,5.8H-207.3z"/>
</svg>
